<svg width="24" height="24" viewBox="0 0 24 24" fill="none"
     xmlns="http://www.w3.org/2000/svg">
        <path d="M14 12C14 11.7817 13.9337 11.6026 13.7827 11.4323L10.9982 8.19648C10.8877 8.06546 10.7514 8 10.5893 8C10.2652 8 10 8.31444 10 8.69433C10 8.88646 10.0663 9.06551 10.1878 9.20524L12.6151 11.9956L10.1878 14.7904C10.0663 14.9345 10 15.1092 10 15.3057C10 15.69 10.2652 16 10.5893 16C10.7514 16 10.8877 15.9345 10.9982 15.8035L13.7827 12.5677C13.9374 12.393 14 12.214 14 12Z"
              fill="currentColor" stroke="currentColor" stroke-width="0.4"/>
</svg>
