<svg width="24" height="24" viewBox="0 0 24 24" fill="none"
     xmlns="http://www.w3.org/2000/svg">
    <path d="M10 12C10 12.2183 10.0663 12.3974 10.2173 12.5677L13.0018 15.8035C13.1123 15.9345 13.2486 16 13.4107 16C13.7348 16 14 15.6856 14 15.3057C14 15.1135 13.9337 14.9345 13.8122 14.7948L11.3849 12.0044L13.8122 9.2096C13.9337 9.0655 14 8.89083 14 8.69432C14 8.31004 13.7348 8 13.4107 8C13.2486 8 13.1123 8.0655 13.0018 8.1965L10.2173 11.4323C10.0626 11.607 10 11.786 10 12Z"
          fill="currentColor" stroke="currentColor" stroke-width="0.4"/>
</svg>
